<svg width="20" height="19" viewBox="0 0 20 19" fill="none" xmlns="http://www.w3.org/2000/svg">
<path d="M16.9308 3.26368C15.6561 2.67878 14.2892 2.24785 12.8599 2.00104C12.8339 1.99627 12.8079 2.00818 12.7945 2.03198C12.6187 2.34466 12.4239 2.75258 12.2876 3.0732C10.7503 2.84306 9.22099 2.84306 7.71527 3.0732C7.57887 2.74545 7.37707 2.34466 7.20048 2.03198C7.18707 2.00897 7.16107 1.99707 7.13504 2.00104C5.70659 2.24706 4.33963 2.67799 3.06411 3.26368C3.05307 3.26844 3.04361 3.27638 3.03732 3.28669C0.444493 7.16032 -0.265792 10.9387 0.0826501 14.6703C0.0842267 14.6886 0.0944749 14.706 0.108665 14.7171C1.81934 15.9734 3.47642 16.7361 5.10273 17.2416C5.12876 17.2496 5.15634 17.24 5.1729 17.2186C5.55761 16.6933 5.90054 16.1393 6.19456 15.5568C6.21192 15.5227 6.19535 15.4822 6.15989 15.4687C5.61594 15.2624 5.098 15.0108 4.59978 14.7251C4.56037 14.7021 4.55721 14.6457 4.59347 14.6187C4.69831 14.5402 4.80318 14.4584 4.9033 14.3759C4.92141 14.3608 4.94665 14.3576 4.96794 14.3671C8.24107 15.8615 11.7846 15.8615 15.0191 14.3671C15.0404 14.3568 15.0657 14.36 15.0846 14.3751C15.1847 14.4576 15.2896 14.5402 15.3952 14.6187C15.4314 14.6457 15.4291 14.7021 15.3897 14.7251C14.8914 15.0163 14.3735 15.2624 13.8288 15.4679C13.7933 15.4814 13.7775 15.5227 13.7949 15.5568C14.0952 16.1385 14.4381 16.6924 14.8157 17.2178C14.8315 17.24 14.8599 17.2496 14.8859 17.2416C16.5201 16.7361 18.1772 15.9734 19.8879 14.7171C19.9028 14.706 19.9123 14.6894 19.9139 14.6711C20.3309 10.357 19.2154 6.60956 16.9568 3.28748C16.9513 3.27638 16.9419 3.26844 16.9308 3.26368ZM6.68335 12.3982C5.69792 12.3982 4.88594 11.4935 4.88594 10.3824C4.88594 9.27134 5.68217 8.36663 6.68335 8.36663C7.69239 8.36663 8.49651 9.27928 8.48073 10.3824C8.48073 11.4935 7.68451 12.3982 6.68335 12.3982ZM13.329 12.3982C12.3435 12.3982 11.5316 11.4935 11.5316 10.3824C11.5316 9.27134 12.3278 8.36663 13.329 8.36663C14.338 8.36663 15.1421 9.27928 15.1264 10.3824C15.1264 11.4935 14.338 12.3982 13.329 12.3982Z" fill="white"/>
</svg>
