<svg width="20" height="20" viewBox="0 0 20 20" fill="none" xmlns="http://www.w3.org/2000/svg">
<path d="M18.471 10.7128V16.6887C18.471 16.8354 18.3452 16.9612 18.1984 16.9612H15.1162C14.9694 16.9612 14.8436 16.8354 14.8436 16.6887V11.1322C14.8436 9.66446 14.3194 8.65801 12.9984 8.65801C11.992 8.65801 11.4049 9.32898 11.1323 9.97898C11.0274 10.2096 11.0065 10.5451 11.0065 10.8596V16.6887C11.0065 16.8354 10.8807 16.9612 10.7339 16.9612H7.67261C7.52583 16.9612 7.40002 16.8354 7.40002 16.6887C7.40002 15.1999 7.44196 8.00801 7.40002 6.33059C7.40002 6.18382 7.52583 6.05801 7.67261 6.05801H10.7549C10.9016 6.05801 11.0274 6.18382 11.0274 6.33059V7.60962C11.0274 7.63059 11.0065 7.63059 11.0065 7.65156H11.0274V7.60962C11.5097 6.87575 12.3694 5.8064 14.2984 5.8064C16.6887 5.8064 18.471 7.37898 18.471 10.7128ZM2.03228 16.9822H5.11454C5.26132 16.9822 5.38712 16.8564 5.38712 16.7096V6.33059C5.38712 6.18382 5.26132 6.05801 5.11454 6.05801H2.03228C1.88551 6.05801 1.7597 6.18382 1.7597 6.33059V16.7096C1.78067 16.8564 1.88551 16.9822 2.03228 16.9822Z" fill="white"/>
<path d="M3.4793 4.80649C4.55625 4.80649 5.4293 3.93345 5.4293 2.85649C5.4293 1.77954 4.55625 0.906494 3.4793 0.906494C2.40234 0.906494 1.5293 1.77954 1.5293 2.85649C1.5293 3.93345 2.40234 4.80649 3.4793 4.80649Z" fill="white"/>
</svg>
