<svg width="20" height="20" viewBox="0 0 20 20" fill="none" xmlns="http://www.w3.org/2000/svg">
<g clip-path="url(#clip0_2_150)">
<path d="M8.44556 17.5038C4.56196 17.4343 3.23553 17.3719 2.42022 17.2087C1.86861 17.1003 1.38926 16.8596 1.03779 16.5105C0.766144 16.2462 0.550116 15.8431 0.382514 15.2838C0.238748 14.8178 0.182754 14.4301 0.102926 13.483C-0.0192758 11.3457 -0.0484074 9.59828 0.102926 7.64579C0.227776 6.56757 0.288309 5.28759 1.11762 4.54085C1.50919 4.19136 1.9647 3.96645 2.47621 3.87348C3.27525 3.72611 6.6795 3.60962 10.2037 3.60962C13.7199 3.60962 17.1317 3.72611 17.9315 3.87348C18.5705 3.98997 19.1698 4.33909 19.5216 4.78927C20.2783 5.9454 20.2916 7.38303 20.3684 8.50756C20.4001 9.04337 20.4001 12.0858 20.3684 12.6216C20.2488 14.3988 20.1527 15.0276 19.8811 15.6796C19.7131 16.0911 19.5697 16.3083 19.3215 16.549C18.9323 16.9195 18.436 17.1658 17.899 17.2554C14.5382 17.5008 11.6845 17.5541 8.44556 17.5038V17.5038ZM13.592 10.3627C11.7223 9.39212 9.93203 8.49213 8.10203 7.56053V13.1339C10.0277 12.1171 12.0579 11.1855 13.6 10.3549L13.592 10.3627Z" fill="white"/>
</g>
<defs>
<clipPath id="clip0_2_150">
<rect width="20" height="20" fill="white"/>
</clipPath>
</defs>
</svg>
